cyclingleg_probed_states
version=1
nRows=9
nColumns=49
inDegrees=yes

# SIMM Motion File Header:
name cyclingleg_probed_states
datacolumns 49
datarows 9
otherdata 1
range 0.00000000 0.00005747
endheader
time	/jointset/bb/crank_angle/value	/jointset/bb/crank_angle/speed	/jointset/spindle/pedal_angle_r/value	/jointset/spindle/pedal_angle_r/speed	/jointset/ground_pelvis/pelvis_tilt/value	/jointset/ground_pelvis/pelvis_tilt/speed	/jointset/ground_pelvis/pelvis_list/value	/jointset/ground_pelvis/pelvis_list/speed	/jointset/ground_pelvis/pelvis_rotation/value	/jointset/ground_pelvis/pelvis_rotation/speed	/jointset/ground_pelvis/pelvis_tx/value	/jointset/ground_pelvis/pelvis_tx/speed	/jointset/ground_pelvis/pelvis_ty/value	/jointset/ground_pelvis/pelvis_ty/speed	/jointset/ground_pelvis/pelvis_tz/value	/jointset/ground_pelvis/pelvis_tz/speed	/jointset/hip_r/hip_angle_r/value	/jointset/hip_r/hip_angle_r/speed	/jointset/hip_r/hip_adduction_r/value	/jointset/hip_r/hip_adduction_r/speed	/jointset/hip_r/hip_rotation_r/value	/jointset/hip_r/hip_rotation_r/speed	/jointset/knee_r/knee_angle_r/value	/jointset/knee_r/knee_angle_r/speed	/jointset/knee_r/tib_tx_r/value	/jointset/knee_r/tib_tx_r/speed	/jointset/knee_r/tib_ty_r/value	/jointset/knee_r/tib_ty_r/speed	/jointset/tib_pat_r/pat_angle_r/value	/jointset/tib_pat_r/pat_angle_r/speed	/jointset/tib_pat_r/pat_tx_r/value	/jointset/tib_pat_r/pat_tx_r/speed	/jointset/tib_pat_r/pat_ty_r/value	/jointset/tib_pat_r/pat_ty_r/speed	/jointset/ankle_r/ankle_angle_r/value	/jointset/ankle_r/ankle_angle_r/speed	/jointset/subtalar_r/subtalar_angle_r/value	/jointset/subtalar_r/subtalar_angle_r/speed	/jointset/mtp_r/mtp_angle_r/value	/jointset/mtp_r/mtp_angle_r/speed	/forceset/bifemlh_r/activation	/forceset/bifemlh_r/fiber_length	/forceset/bifemsh_r/activation	/forceset/bifemsh_r/fiber_length	/forceset/glut_max2_r/activation	/forceset/glut_max2_r/fiber_length	/forceset/vas_int_r/activation	/forceset/vas_int_r/fiber_length
      0.00000000	    -10.13488126	      0.00000000	      4.90699092	      0.00000000	     -0.00000000	      0.00000000	     -0.00000000	      0.00000000	     -0.00000000	      0.00000000	     -0.10000000	      0.00000000	     -0.05000000	      0.00000000	      0.00000000	      0.00000000	     83.11760167	      0.00000000	      4.07985323	      0.00000000	     -3.79708845	      0.00000000	   -115.32183968	      0.00000000	     -0.00208256	      0.00000000	     -0.49454392	      0.00000000	     17.65061979	      0.00000000	      0.02178359	      0.00000000	     -0.02422901	      0.00000000	     27.66764378	      0.00000000	     -0.00000000	      0.00000000	     -0.00000000	      0.00000000	      0.05000000	      0.10000000	      0.05000000	      0.10000000	      0.05000000	      0.10000000	      0.05000000	      0.10000000
      0.00000170	    -10.13488155	     -0.33057571	      4.90699128	      0.42019820	     -0.00000000	     -0.00000000	     -0.00000000	     -0.00000000	      0.00000000	      0.00000000	     -0.10000000	     -0.00000000	     -0.05000000	     -0.00000000	      0.00000000	      0.00000000	     83.11760169	      0.02045613	      4.07985323	      0.00100208	     -3.79708844	      0.01029887	   -115.32183959	      0.09999863	     -0.00208256	      0.00003373	     -0.49454392	      0.00003243	     17.65061979	     -0.00006760	      0.02178359	      0.00004894	     -0.02422901	      0.00000790	     27.66764375	     -0.03175550	     -0.00000000	     -0.00000000	      0.00000000	      0.00000000	      0.04999878	      0.10061466	      0.04999878	      0.11065335	      0.04999878	      0.10372226	      0.04999878	      0.10273400
      0.00000341	    -10.13488238	     -0.65201734	      4.90699235	      0.82878597	     -0.00000000	     -0.00000000	     -0.00000000	     -0.00000000	      0.00000000	     -0.00000000	     -0.10000000	     -0.00000000	     -0.05000000	     -0.00000000	      0.00000000	     -0.00000000	     83.11760174	      0.04034704	      4.07985323	      0.00197647	     -3.79708842	      0.02031317	   -115.32183934	      0.19723422	     -0.00208256	      0.00006653	     -0.49454392	      0.00006397	     17.65061979	     -0.00013333	      0.02178359	      0.00009653	     -0.02422901	      0.00001558	     27.66764367	     -0.06263356	      0.00000000	      0.00000000	      0.00000000	      0.00000000	      0.04999755	      0.10121647	      0.04999755	      0.11749671	      0.04999755	      0.10708498	      0.04999755	      0.10530424
      0.00000614	    -10.13488484	     -1.14485349	      4.90699548	      1.45523508	     -0.00000000	      0.00000000	     -0.00000000	     -0.00000000	     -0.00000000	     -0.00000000	     -0.10000000	     -0.00000000	     -0.05000000	      0.00000000	      0.00000000	     -0.00000000	     83.11760189	      0.07084388	      4.07985324	      0.00347042	     -3.79708834	      0.03566715	   -115.32183859	      0.34631641	     -0.00208256	      0.00011682	     -0.49454392	      0.00011233	     17.65061979	     -0.00023410	      0.02178359	      0.00016949	     -0.02422901	      0.00002736	     27.66764343	     -0.10997599	      0.00000000	      0.00000000	      0.00000000	     -0.00000000	      0.04999559	      0.10215567	      0.04999559	      0.12485569	      0.04999559	      0.11185950	      0.04999559	      0.10912668
      0.00001025	    -10.13489099	     -1.83264782	      4.90700328	      2.32949752	      0.00000000	      0.00000000	     -0.00000000	     -0.00000000	     -0.00000000	     -0.00000000	     -0.10000000	     -0.00000000	     -0.05000000	      0.00000000	      0.00000000	     -0.00000000	     83.11760227	      0.11340471	      4.07985325	      0.00555534	     -3.79708815	      0.05709494	   -115.32183674	      0.55437322	     -0.00208256	      0.00018700	     -0.49454391	      0.00017981	     17.65061979	     -0.00037475	      0.02178359	      0.00027132	     -0.02422901	      0.00004380	     27.66764284	     -0.17604635	      0.00000000	      0.00000000	      0.00000000	     -0.00000000	      0.04999264	      0.10351283	      0.04999264	      0.13169571	      0.04999264	      0.11791539	      0.04999264	      0.11429332
      0.00001667	    -10.13490589	     -2.78262926	      4.90702222	      3.53702865	      0.00000000	      0.00000000	     -0.00000000	     -0.00000000	     -0.00000000	     -0.00000000	     -0.10000000	     -0.00000000	     -0.05000000	      0.00000000	      0.00000000	     -0.00000000	     83.11760319	      0.17218945	      4.07985330	      0.00843504	     -3.79708769	      0.08669102	   -115.32183223	      0.84174151	     -0.00208256	      0.00028393	     -0.49454391	      0.00027302	     17.65061979	     -0.00056900	      0.02178359	      0.00041197	     -0.02422901	      0.00006650	     27.66764141	     -0.26730277	      0.00000000	      0.00000000	     -0.00000000	     -0.00000000	      0.04998802	      0.10550682	      0.04998802	      0.13752775	      0.04998802	      0.12538451	      0.04998802	      0.12123149
      0.00002837	    -10.13494698	     -4.17162330	      4.90707446	      5.30259295	      0.00000000	      0.00000000	     -0.00000000	      0.00000000	     -0.00000000	     -0.00000000	     -0.10000000	     -0.00000000	     -0.05000000	      0.00000000	      0.00000000	     -0.00000000	     83.11760573	      0.25813913	      4.07985342	      0.01264554	     -3.79708641	      0.12996434	   -115.32181980	      1.26191166	     -0.00208256	      0.00042566	     -0.49454391	      0.00040931	     17.65061978	     -0.00085304	      0.02178359	      0.00061761	     -0.02422901	      0.00009970	     27.66763747	     -0.40073149	      0.00000000	      0.00000000	     -0.00000000	     -0.00000000	      0.04997961	      0.10878899	      0.04997961	      0.14193541	      0.04997961	      0.13489775	      0.04997961	      0.13122800
      0.00004008	    -10.13500214	     -5.20158107	      4.90714457	      6.61178227	      0.00000000	      0.00000000	     -0.00000000	      0.00000000	     -0.00000000	     -0.00000000	     -0.10000000	     -0.00000000	     -0.05000000	      0.00000000	      0.00000000	     -0.00000000	     83.11760915	      0.32187028	      4.07985359	      0.01576770	     -3.79708469	      0.16205223	   -115.32180311	      1.57347510	     -0.00208255	      0.00053075	     -0.49454390	      0.00051036	     17.65061977	     -0.00106366	      0.02178360	      0.00077009	     -0.02422901	      0.00012432	     27.66763217	     -0.49967096	      0.00000000	      0.00000000	     -0.00000000	     -0.00000000	      0.04997120	      0.11168150	      0.04997120	      0.14341672	      0.04997120	      0.14110629	      0.04997120	      0.13872806
      0.00005747	    -10.13510239	     -6.24216702	      4.90727200	      7.93448050	      0.00000000	      0.00000000	      0.00000000	      0.00000000	     -0.00000000	     -0.00000000	     -0.10000000	     -0.00000000	     -0.05000000	      0.00000000	      0.00000000	     -0.00000000	     83.11761535	      0.38625578	      4.07985390	      0.01892211	     -3.79708156	      0.19447150	   -115.32177279	      1.88825673	     -0.00208254	      0.00063693	     -0.49454389	      0.00061246	     17.65061975	     -0.00127647	      0.02178362	      0.00092415	     -0.02422901	      0.00014919	     27.66762254	     -0.59963195	      0.00000000	      0.00000000	     -0.00000000	     -0.00000000	      0.04995871	      0.11538415	      0.04995871	      0.14406388	      0.04995871	      0.14677466	      0.04995871	      0.14660588
